<svg id="Group_911" data-name="Group 911" xmlns="http://www.w3.org/2000/svg" xmlns:xlink="http://www.w3.org/1999/xlink" width="516.577" height="449.071" viewBox="0 0 516.577 449.071">
  <defs>
    <clipPath id="clip-path">
      <rect id="Rectangle_1394" data-name="Rectangle 1394" width="516.577" height="449.071" fill="none"/>
    </clipPath>
    <clipPath id="clip-path-2">
      <path id="Rectangle_1395" data-name="Rectangle 1395" d="M7.445,0h99.23a7.445,7.445,0,0,1,7.445,7.445v3.617a7.444,7.444,0,0,1-7.444,7.444H7.445A7.445,7.445,0,0,1,0,11.061V7.445A7.445,7.445,0,0,1,7.445,0Z" fill="none"/>
    </clipPath>
    <clipPath id="clip-path-3">
      <path id="Rectangle_1396" data-name="Rectangle 1396" d="M7.445,0h99.23a7.445,7.445,0,0,1,7.445,7.445v3.617a7.444,7.444,0,0,1-7.444,7.444H7.444A7.444,7.444,0,0,1,0,11.062V7.445A7.445,7.445,0,0,1,7.445,0Z" fill="none"/>
    </clipPath>
    <clipPath id="clip-path-5">
      <path id="Rectangle_1398" data-name="Rectangle 1398" d="M7.445,0h99.229a7.446,7.446,0,0,1,7.446,7.446v3.616a7.445,7.445,0,0,1-7.445,7.445H7.446A7.446,7.446,0,0,1,0,11.061V7.445A7.445,7.445,0,0,1,7.445,0Z" fill="none"/>
    </clipPath>
    <clipPath id="clip-path-9">
      <rect id="Rectangle_1402" data-name="Rectangle 1402" width="114.12" height="18.506" rx="7.445" fill="none"/>
    </clipPath>
    <clipPath id="clip-path-13">
      <path id="Rectangle_1406" data-name="Rectangle 1406" d="M7.446,0h99.229a7.446,7.446,0,0,1,7.446,7.446V11.06a7.446,7.446,0,0,1-7.446,7.446H7.445A7.445,7.445,0,0,1,0,11.061V7.446A7.446,7.446,0,0,1,7.446,0Z" fill="none"/>
    </clipPath>
    <clipPath id="clip-path-17">
      <rect id="Rectangle_1410" data-name="Rectangle 1410" width="117.013" height="27.636" fill="none"/>
    </clipPath>
    <clipPath id="clip-path-20">
      <rect id="Rectangle_1413" data-name="Rectangle 1413" width="106.833" height="112.315" fill="none"/>
    </clipPath>
    <clipPath id="clip-path-24">
      <rect id="Rectangle_1416" data-name="Rectangle 1416" width="162.343" height="16.705" fill="none"/>
    </clipPath>
  </defs>
  <g id="Group_912" data-name="Group 912">
    <g id="Group_911-2" data-name="Group 911" clip-path="url(#clip-path)">
      <path id="Path_1041" data-name="Path 1041" d="M132.618,87.068H23.889a2.7,2.7,0,0,1-2.7-2.7V71.258a2.7,2.7,0,0,1,2.7-2.7H132.618a2.7,2.7,0,0,1,2.7,2.7V84.372a2.7,2.7,0,0,1-2.7,2.7" transform="translate(-6.906 -22.343)" fill="#c8ced7"/>
      <path id="Path_1042" data-name="Path 1042" d="M132.618,160.274H23.889a2.7,2.7,0,0,1-2.7-2.7V144.464a2.7,2.7,0,0,1,2.7-2.7H132.618a2.7,2.7,0,0,1,2.7,2.7v13.113a2.7,2.7,0,0,1-2.7,2.7" transform="translate(-6.906 -46.199)" fill="#c8ced7"/>
      <path id="Path_1043" data-name="Path 1043" d="M315.6,50.466H211.513a5.019,5.019,0,0,1-5.019-5.019V36.979a5.019,5.019,0,0,1,5.019-5.019H315.6a5.019,5.019,0,0,1,5.019,5.019v8.468a5.019,5.019,0,0,1-5.019,5.019" transform="translate(-67.291 -10.415)" fill="#d6fb7b"/>
      <path id="Path_1044" data-name="Path 1044" d="M317.919,87.068H209.191a2.7,2.7,0,0,1-2.7-2.7V71.258a2.7,2.7,0,0,1,2.7-2.7H317.919a2.7,2.7,0,0,1,2.7,2.7V84.372a2.7,2.7,0,0,1-2.7,2.7" transform="translate(-67.292 -22.343)" fill="#c8ced7"/>
      <path id="Path_1045" data-name="Path 1045" d="M317.919,123.671H209.191a2.7,2.7,0,0,1-2.7-2.7V107.862a2.7,2.7,0,0,1,2.7-2.7H317.919a2.7,2.7,0,0,1,2.7,2.7v13.113a2.7,2.7,0,0,1-2.7,2.7" transform="translate(-67.292 -34.271)" fill="#c8ced7"/>
      <path id="Path_1046" data-name="Path 1046" d="M317.919,160.274H209.191a2.7,2.7,0,0,1-2.7-2.7V144.464a2.7,2.7,0,0,1,2.7-2.7H317.919a2.7,2.7,0,0,1,2.7,2.7v13.113a2.7,2.7,0,0,1-2.7,2.7" transform="translate(-67.292 -46.199)" fill="#c8ced7"/>
      <path id="Path_1047" data-name="Path 1047" d="M503.22,50.466H394.491a2.7,2.7,0,0,1-2.7-2.7V34.656a2.7,2.7,0,0,1,2.7-2.7H503.22a2.7,2.7,0,0,1,2.7,2.7V47.77a2.7,2.7,0,0,1-2.7,2.7" transform="translate(-127.677 -10.415)" fill="#c8ced7"/>
      <path id="Path_1048" data-name="Path 1048" d="M688.522,123.671H579.793a2.7,2.7,0,0,1-2.7-2.7V107.862a2.7,2.7,0,0,1,2.7-2.7H688.522a2.7,2.7,0,0,1,2.7,2.7v13.113a2.7,2.7,0,0,1-2.7,2.7" transform="translate(-188.062 -34.271)" fill="#c8ced7"/>
      <path id="Path_1049" data-name="Path 1049" d="M688.522,160.274H579.793a2.7,2.7,0,0,1-2.7-2.7V144.464a2.7,2.7,0,0,1,2.7-2.7H688.522a2.7,2.7,0,0,1,2.7,2.7v13.113a2.7,2.7,0,0,1-2.7,2.7" transform="translate(-188.062 -46.199)" fill="#c8ced7"/>
      <path id="Path_1050" data-name="Path 1050" d="M503.22,233.479H394.491a2.7,2.7,0,0,1-2.7-2.7V217.669a2.7,2.7,0,0,1,2.7-2.7H503.22a2.7,2.7,0,0,1,2.7,2.7v13.113a2.7,2.7,0,0,1-2.7,2.7" transform="translate(-127.677 -70.055)" fill="#c8ced7"/>
      <path id="Path_1051" data-name="Path 1051" d="M688.522,196.877H579.793a2.7,2.7,0,0,1-2.7-2.7V181.067a2.7,2.7,0,0,1,2.7-2.7H688.522a2.7,2.7,0,0,1,2.7,2.7v13.113a2.7,2.7,0,0,1-2.7,2.7" transform="translate(-188.062 -58.127)" fill="#c8ced7"/>
      <path id="Path_1052" data-name="Path 1052" d="M688.522,233.479H579.793a2.7,2.7,0,0,1-2.7-2.7V217.669a2.7,2.7,0,0,1,2.7-2.7H688.522a2.7,2.7,0,0,1,2.7,2.7v13.113a2.7,2.7,0,0,1-2.7,2.7" transform="translate(-188.062 -70.055)" fill="#c8ced7"/>
      <path id="Path_1053" data-name="Path 1053" d="M503.22,270.082H394.491a2.7,2.7,0,0,1-2.7-2.7V254.272a2.7,2.7,0,0,1,2.7-2.7H503.22a2.7,2.7,0,0,1,2.7,2.7v13.113a2.7,2.7,0,0,1-2.7,2.7" transform="translate(-127.677 -81.983)" fill="#c8ced7"/>
      <path id="Path_1054" data-name="Path 1054" d="M686.2,270.082H582.116a5.019,5.019,0,0,1-5.019-5.019v-8.468a5.019,5.019,0,0,1,5.019-5.019H686.2a5.018,5.018,0,0,1,5.018,5.019v8.468a5.018,5.018,0,0,1-5.018,5.019" transform="translate(-188.062 -81.983)" fill="#d6fb7b"/>
    </g>
  </g>
  <g id="Group_914" data-name="Group 914" transform="translate(139.203 21.545)">
    <g id="Group_913" data-name="Group 913" clip-path="url(#clip-path-2)">
      <path id="Path_1055" data-name="Path 1055" d="M185.385,54.195l30.8-34.454M201.2,54.195,232,19.741M217.018,54.195l30.8-34.454M232.833,54.195l30.8-34.454M248.65,54.195l30.8-34.454M264.466,54.195l30.8-34.454M280.281,54.195l30.8-34.454M296.1,54.195l30.8-34.454" transform="translate(-199.616 -27.978)" fill="none" stroke="#434f5a" stroke-miterlimit="10" stroke-width="0.5"/>
    </g>
  </g>
  <g id="Group_916" data-name="Group 916" transform="translate(389.035 169.593)">
    <g id="Group_915" data-name="Group 915" clip-path="url(#clip-path-3)">
      <path id="Path_1056" data-name="Path 1056" d="M555.988,273.811l30.8-34.454M571.8,273.811l30.8-34.454m-14.983,34.454,30.8-34.454m-14.984,34.454,30.8-34.454m-14.984,34.454,30.8-34.454m-14.984,34.454,30.8-34.454m-14.984,34.454,30.8-34.454M666.7,273.811l30.8-34.454" transform="translate(-570.218 -247.594)" fill="none" stroke="#434f5a" stroke-miterlimit="10" stroke-width="0.5"/>
    </g>
  </g>
  <g id="Group_918" data-name="Group 918">
    <g id="Group_917" data-name="Group 917" clip-path="url(#clip-path)">
      <path id="Path_1057" data-name="Path 1057" d="M500.757,87.4H396.674a5.019,5.019,0,0,1-5.019-5.019V73.913a5.019,5.019,0,0,1,5.019-5.019H500.757a5.019,5.019,0,0,1,5.019,5.019v8.468a5.019,5.019,0,0,1-5.019,5.019" transform="translate(-127.631 -22.451)" fill="#d6fb7b"/>
    </g>
  </g>
  <g id="Group_920" data-name="Group 920" transform="translate(264.024 46.442)">
    <g id="Group_919" data-name="Group 919" clip-path="url(#clip-path-5)">
      <path id="Path_1058" data-name="Path 1058" d="M370.546,91.129l30.8-34.454M386.362,91.129l30.8-34.454M402.179,91.129l30.8-34.454M417.994,91.129l30.8-34.454M433.81,91.129l30.8-34.454M449.627,91.129l30.8-34.454M465.442,91.129l30.8-34.454M481.259,91.129l30.8-34.454" transform="translate(-384.776 -64.911)" fill="none" stroke="#434f5a" stroke-miterlimit="10" stroke-width="0.5"/>
    </g>
  </g>
  <g id="Group_922" data-name="Group 922">
    <g id="Group_921" data-name="Group 921" clip-path="url(#clip-path)">
      <path id="Path_1059" data-name="Path 1059" d="M500.757,123.4H396.674a5.019,5.019,0,0,1-5.019-5.019v-8.468a5.019,5.019,0,0,1,5.019-5.019H500.757a5.019,5.019,0,0,1,5.019,5.019v8.468a5.019,5.019,0,0,1-5.019,5.019" transform="translate(-127.631 -34.182)" fill="#d6fb7b"/>
    </g>
  </g>
  <g id="Group_924" data-name="Group 924" transform="translate(264.024 70.711)">
    <g id="Group_923" data-name="Group 923" clip-path="url(#clip-path-5)">
      <path id="Path_1060" data-name="Path 1060" d="M370.546,127.129l30.8-34.454m-14.984,34.454,30.8-34.454m-14.983,34.454,30.8-34.454m-14.984,34.454,30.8-34.454M433.81,127.129l30.8-34.454m-14.983,34.454,30.8-34.454m-14.984,34.454,30.8-34.454m-14.984,34.454,30.8-34.454" transform="translate(-384.776 -100.911)" fill="none" stroke="#434f5a" stroke-miterlimit="10" stroke-width="0.5"/>
    </g>
  </g>
  <g id="Group_926" data-name="Group 926">
    <g id="Group_925" data-name="Group 925" clip-path="url(#clip-path)">
      <path id="Path_1061" data-name="Path 1061" d="M500.757,160.4H396.674a5.019,5.019,0,0,1-5.019-5.019v-8.468a5.019,5.019,0,0,1,5.019-5.019H500.757a5.019,5.019,0,0,1,5.019,5.019v8.468a5.019,5.019,0,0,1-5.019,5.019" transform="translate(-127.631 -46.24)" fill="#d6fb7b"/>
    </g>
  </g>
  <g id="Group_928" data-name="Group 928" transform="translate(264.024 95.654)">
    <g id="Group_927" data-name="Group 927" clip-path="url(#clip-path-9)">
      <path id="Path_1062" data-name="Path 1062" d="M370.546,164.129l30.8-34.454m-14.984,34.454,30.8-34.454m-14.983,34.454,30.8-34.454m-14.984,34.454,30.8-34.454M433.81,164.129l30.8-34.454m-14.983,34.454,30.8-34.454m-14.984,34.454,30.8-34.454m-14.984,34.454,30.8-34.454" transform="translate(-384.776 -137.912)" fill="none" stroke="#434f5a" stroke-miterlimit="10" stroke-width="0.5"/>
    </g>
  </g>
  <g id="Group_930" data-name="Group 930">
    <g id="Group_929" data-name="Group 929" clip-path="url(#clip-path)">
      <path id="Path_1063" data-name="Path 1063" d="M500.757,196.4H396.674a5.019,5.019,0,0,1-5.019-5.019v-8.468a5.019,5.019,0,0,1,5.019-5.019H500.757a5.019,5.019,0,0,1,5.019,5.019v8.468a5.019,5.019,0,0,1-5.019,5.019" transform="translate(-127.631 -57.971)" fill="#d6fb7b"/>
    </g>
  </g>
  <g id="Group_932" data-name="Group 932" transform="translate(264.024 119.923)">
    <g id="Group_931" data-name="Group 931" clip-path="url(#clip-path-9)">
      <path id="Path_1064" data-name="Path 1064" d="M370.546,200.129l30.8-34.454m-14.984,34.454,30.8-34.454m-14.983,34.454,30.8-34.454m-14.984,34.454,30.8-34.454M433.81,200.129l30.8-34.454m-14.983,34.454,30.8-34.454m-14.984,34.454,30.8-34.454m-14.984,34.454,30.8-34.454" transform="translate(-384.776 -173.912)" fill="none" stroke="#434f5a" stroke-miterlimit="10" stroke-width="0.5"/>
    </g>
  </g>
  <g id="Group_934" data-name="Group 934">
    <g id="Group_933" data-name="Group 933" clip-path="url(#clip-path)">
      <path id="Path_1065" data-name="Path 1065" d="M130.4,50.843H26.314A5.019,5.019,0,0,1,21.3,45.824V37.356a5.018,5.018,0,0,1,5.018-5.019H130.4a5.019,5.019,0,0,1,5.019,5.019v8.468a5.019,5.019,0,0,1-5.019,5.019" transform="translate(-6.94 -10.538)" fill="#d6fb7b"/>
    </g>
  </g>
  <g id="Group_936" data-name="Group 936" transform="translate(14.355 21.799)">
    <g id="Group_935" data-name="Group 935" clip-path="url(#clip-path-13)">
      <path id="Path_1066" data-name="Path 1066" d="M.186,54.573l30.8-34.454M16,54.573,46.8,20.119M31.819,54.573l30.8-34.454M47.634,54.573l30.8-34.454M63.451,54.573l30.8-34.454M79.267,54.573l30.8-34.454M95.082,54.573l30.8-34.454M110.9,54.573l30.8-34.454" transform="translate(-14.416 -28.355)" fill="none" stroke="#434f5a" stroke-miterlimit="10" stroke-width="0.5"/>
    </g>
  </g>
  <g id="Group_938" data-name="Group 938">
    <g id="Group_937" data-name="Group 937" clip-path="url(#clip-path)">
      <path id="Path_1067" data-name="Path 1067" d="M130.4,123.843H26.314a5.019,5.019,0,0,1-5.018-5.019v-8.468a5.019,5.019,0,0,1,5.018-5.019H130.4a5.019,5.019,0,0,1,5.019,5.019v8.468a5.019,5.019,0,0,1-5.019,5.019" transform="translate(-6.94 -34.327)" fill="#d6fb7b"/>
    </g>
  </g>
  <g id="Group_940" data-name="Group 940" transform="translate(14.355 71.01)">
    <g id="Group_939" data-name="Group 939" clip-path="url(#clip-path-13)">
      <path id="Path_1068" data-name="Path 1068" d="M.186,127.573l30.8-34.454M16,127.573,46.8,93.119M31.819,127.573l30.8-34.454M47.634,127.573l30.8-34.454M63.451,127.573l30.8-34.454M79.267,127.573l30.8-34.454M95.082,127.573l30.8-34.454M110.9,127.573l30.8-34.454" transform="translate(-14.416 -101.355)" fill="none" stroke="#434f5a" stroke-miterlimit="10" stroke-width="0.5"/>
    </g>
  </g>
  <g id="Group_948" data-name="Group 948">
    <g id="Group_947" data-name="Group 947" clip-path="url(#clip-path)">
      <path id="Path_1069" data-name="Path 1069" d="M120.124,0H34.368A13.671,13.671,0,0,0,20.7,13.671H133.8A13.672,13.672,0,0,0,120.124,0" transform="translate(-6.745)" fill="#a0a6ac"/>
      <path id="Path_1070" data-name="Path 1070" d="M306.332,0H220.576A13.671,13.671,0,0,0,206.9,13.671H320A13.672,13.672,0,0,0,306.332,0" transform="translate(-67.425)" fill="#a0a6ac"/>
      <path id="Path_1071" data-name="Path 1071" d="M492.54,0H406.784a13.671,13.671,0,0,0-13.671,13.671h113.1A13.671,13.671,0,0,0,492.54,0" transform="translate(-128.106)" fill="#a0a6ac"/>
      <path id="Path_1072" data-name="Path 1072" d="M90.339,131.387H364.37c5.518,0,9.992,3.908,9.992,8.729V483.158c0,4.821-4.474,8.729-9.992,8.729H90.339c-5.518,0-9.992-3.908-9.992-8.729V140.116c0-4.821,4.473-8.729,9.992-8.729" transform="translate(-26.183 -42.816)" fill="#68727b"/>
      <path id="Path_1073" data-name="Path 1073" d="M77.434,124.837H351.465c5.518,0,9.992,3.908,9.992,8.729V476.609c0,4.82-4.473,8.728-9.992,8.728H77.434c-5.518,0-9.992-3.908-9.992-8.728V133.566c0-4.821,4.473-8.729,9.992-8.729" transform="translate(-21.978 -40.681)" fill="#142331"/>
      <path id="Path_1074" data-name="Path 1074" d="M476.591,137.915a3.534,3.534,0,1,0,3.534-3.534,3.535,3.535,0,0,0-3.534,3.534" transform="translate(-155.31 -43.792)" fill="#434f5a"/>
      <path id="Path_1075" data-name="Path 1075" d="M452.76,137.915a3.534,3.534,0,1,0,3.534-3.534,3.535,3.535,0,0,0-3.534,3.534" transform="translate(-147.544 -43.792)" fill="#434f5a"/>
      <path id="Path_1076" data-name="Path 1076" d="M428.93,137.915a3.534,3.534,0,1,0,3.534-3.534,3.534,3.534,0,0,0-3.534,3.534" transform="translate(-139.778 -43.792)" fill="#434f5a"/>
      <path id="Path_1077" data-name="Path 1077" d="M77.434,124.837H351.465c5.518,0,9.992,3.908,9.992,8.729V476.609c0,4.82-4.473,8.728-9.992,8.728H77.434c-5.518,0-9.992-3.908-9.992-8.728V133.566C67.442,128.745,71.915,124.837,77.434,124.837Z" transform="translate(-21.978 -40.681)" fill="none" stroke="#142331" stroke-miterlimit="10" stroke-width="1"/>
      <g id="Group_946" data-name="Group 946" transform="translate(69.611 109.934)" style="isolation: isolate">
        <g id="Group_945" data-name="Group 945">
          <g id="Group_944" data-name="Group 944" clip-path="url(#clip-path-17)">
            <g id="Group_943" data-name="Group 943" style="isolation: isolate">
              <g id="Group_942" data-name="Group 942">
                <g id="Group_941" data-name="Group 941" clip-path="url(#clip-path-17)">
                  <text id="Risk_Score:" data-name="Risk Score:" transform="translate(0 18.251)" fill="#fff" font-size="22" font-family="Inter-Regular, Inter"><tspan x="0" y="0" letter-spacing="-0.02em">Ri</tspan><tspan y="0" letter-spacing="-0.019em">s</tspan><tspan y="0" letter-spacing="-0.02em">k </tspan><tspan y="0" letter-spacing="-0.019em">S</tspan><tspan y="0" letter-spacing="-0.02em">c</tspan><tspan y="0" letter-spacing="-0.019em">o</tspan><tspan y="0" letter-spacing="-0.037em">r</tspan><tspan y="0" letter-spacing="-0.02em">e</tspan><tspan y="0">:</tspan></text>
                </g>
              </g>
            </g>
          </g>
        </g>
      </g>
    </g>
  </g>
  <text id="LOW" transform="translate(69.611 152.741)" fill="#fff" font-size="11" font-family="IBMPlexSans, IBM Plex Sans"><tspan x="0" y="0" letter-spacing="0.07em">L</tspan><tspan y="0" letter-spacing="0.099em">O</tspan><tspan y="0">W</tspan></text>
  <g id="Group_956" data-name="Group 956">
    <g id="Group_955" data-name="Group 955" clip-path="url(#clip-path)">
      <g id="Group_954" data-name="Group 954" transform="translate(137.88 226.144)" style="isolation: isolate">
        <g id="Group_953" data-name="Group 953">
          <g id="Group_952" data-name="Group 952" clip-path="url(#clip-path-20)">
            <g id="Group_951" data-name="Group 951" style="isolation: isolate">
              <g id="Group_950" data-name="Group 950">
                <g id="Group_949" data-name="Group 949" clip-path="url(#clip-path-20)">
                  <text id="_0" data-name="0" transform="translate(0 80.297)" fill="#fff" font-size="93" font-family="Inter-Light, Inter" font-weight="300"><tspan x="0" y="0">0</tspan></text>
                  <text id="_8" data-name="8" transform="translate(53.536 80.297)" fill="#fff" font-size="93" font-family="Inter-Light, Inter" font-weight="300"><tspan x="0" y="0">8</tspan></text>
                </g>
              </g>
            </g>
          </g>
        </g>
      </g>
      <path id="Path_1078" data-name="Path 1078" d="M153.065,361.954a90.727,90.727,0,0,1,90.728-90.728c120.349,4.779,120.314,176.695,0,181.455A90.727,90.727,0,0,1,153.065,361.954Z" transform="translate(-49.88 -88.386)" fill="none" stroke="#c8ced7" stroke-linecap="round" stroke-miterlimit="10" stroke-width="1.5" stroke-dasharray="0 5.004"/>
      <path id="Path_1079" data-name="Path 1079" d="M153.064,370.55a90.6,90.6,0,0,1,36.769-72.945" transform="translate(-49.88 -96.982)" fill="none" stroke="#00b67e" stroke-linecap="round" stroke-miterlimit="10" stroke-width="5"/>
      <path id="Path_1080" data-name="Path 1080" d="M200.4,294.1a4.739,4.739,0,1,1,4.739,4.739A4.739,4.739,0,0,1,200.4,294.1" transform="translate(-65.307 -94.294)" fill="#fff"/>
      <path id="Path_1081" data-name="Path 1081" d="M686.4,86.843H582.315a5.019,5.019,0,0,1-5.019-5.019V73.356a5.019,5.019,0,0,1,5.019-5.019H686.4a5.019,5.019,0,0,1,5.019,5.019v8.468a5.019,5.019,0,0,1-5.019,5.019" transform="translate(-188.127 -22.269)" fill="#d6fb7b"/>
    </g>
  </g>
  <g id="Group_958" data-name="Group 958" transform="translate(389.168 46.068)">
    <g id="Group_957" data-name="Group 957" clip-path="url(#clip-path-2)">
      <path id="Path_1082" data-name="Path 1082" d="M556.186,90.573l30.8-34.454M572,90.573l30.8-34.454M587.819,90.573l30.8-34.454M603.634,90.573l30.8-34.454M619.451,90.573l30.8-34.454M635.267,90.573l30.8-34.454M651.082,90.573l30.8-34.454M666.9,90.573l30.8-34.454" transform="translate(-570.416 -64.355)" fill="none" stroke="#434f5a" stroke-miterlimit="10" stroke-width="0.5"/>
    </g>
  </g>
  <g id="Group_963" data-name="Group 963">
    <g id="Group_962" data-name="Group 962" clip-path="url(#clip-path)">
      <g id="Group_961" data-name="Group 961" transform="translate(87.294 401.245)" style="isolation: isolate">
        <g id="Group_960" data-name="Group 960">
          <g id="Group_959" data-name="Group 959" clip-path="url(#clip-path-24)">
            <text id="_customer_records_db" data-name=" customer_records_db" transform="translate(0 10.848)" fill="#fff" font-size="13" font-family="Menlo-Regular, Menlo"><tspan x="0" y="0" xml:space="preserve"> customer_records_db</tspan></text>
          </g>
        </g>
      </g>
      <path id="Path_1083" data-name="Path 1083" d="M122.12,610.43l-3.5-2.02a1.027,1.027,0,0,0-1.536.99v3.948a1.023,1.023,0,0,0,2.047,0v-2.271l1.958,1.132a1.027,1.027,0,1,0,1.027-1.779" transform="translate(-38.154 -198.222)" fill="#c8ced7"/>
      <path id="Path_1084" data-name="Path 1084" d="M109,603.583a1.007,1.007,0,0,0-.5-.887l-3.5-2.018a1,1,0,0,0-1,1.739l2.016,1.162-2.016,1.164a1,1,0,0,0-.367,1.371,1,1,0,0,0,1.37.367l3.5-2.018a1.008,1.008,0,0,0,.5-.88" transform="translate(-33.726 -195.703)" fill="#c8ced7"/>
      <path id="Path_1085" data-name="Path 1085" d="M106.653,596.706l3.5,2.018a1.053,1.053,0,0,0,1.563-.908v-4.045a1.023,1.023,0,1,0-2.047,0v2.3l-1.985-1.147a1.027,1.027,0,1,0-1.027,1.779" transform="translate(-34.588 -193.162)" fill="#c8ced7"/>
      <path id="Path_1086" data-name="Path 1086" d="M116.724,604.289a.394.394,0,0,1-.1.241l-1.386,1.386a.391.391,0,0,1-.241.1h-.353a.389.389,0,0,1-.241-.1l-1.387-1.386a.394.394,0,0,1-.1-.241v-.353a.386.386,0,0,1,.1-.241l1.387-1.387a.389.389,0,0,1,.241-.1H115a.391.391,0,0,1,.241.1l1.386,1.387a.386.386,0,0,1,.1.241Zm-1.237-.17V604.1a.3.3,0,0,0-.073-.177l-.409-.408a.28.28,0,0,0-.177-.074h-.015a.286.286,0,0,0-.177.074l-.408.408a.286.286,0,0,0-.073.177v.015a.286.286,0,0,0,.073.177l.408.409a.293.293,0,0,0,.177.073h.015a.286.286,0,0,0,.177-.073l.409-.409a.29.29,0,0,0,.073-.177" transform="translate(-36.797 -196.245)" fill="#c8ced7"/>
      <path id="Path_1087" data-name="Path 1087" d="M118.623,598.724l3.5-2.018a1.027,1.027,0,1,0-1.027-1.779l-1.959,1.132v-2.288a1.023,1.023,0,1,0-2.047,0v3.965a1.027,1.027,0,0,0,1.536.988" transform="translate(-38.154 -193.162)" fill="#c8ced7"/>
      <path id="Path_1088" data-name="Path 1088" d="M110.851,608.291a1.019,1.019,0,0,0-.7.119l-3.5,2.02a1.027,1.027,0,1,0,1.027,1.778l1.985-1.146v2.285a1.024,1.024,0,0,0,2.047,0V609.3a1.024,1.024,0,0,0-.862-1.011" transform="translate(-34.588 -198.222)" fill="#c8ced7"/>
      <path id="Path_1089" data-name="Path 1089" d="M125.179,601.021a1.026,1.026,0,0,0-1.4-.377l-3.5,2.018a1.052,1.052,0,0,0,0,1.807l3.5,2.02a1.028,1.028,0,1,0,1.027-1.78l-1.979-1.143,1.979-1.143a1.024,1.024,0,0,0,.377-1.4" transform="translate(-39.029 -195.691)" fill="#c8ced7"/>
    </g>
  </g>
</svg>
