<svg xmlns="http://www.w3.org/2000/svg" width="23.773" height="23.773" viewBox="0 0 23.773 23.773">
  <path id="linkedin_1_" data-name="linkedin (1)" d="M11.887,0A11.887,11.887,0,1,0,23.773,11.887,11.888,11.888,0,0,0,11.887,0ZM8.433,17.969H5.538V9.26H8.433Zm-1.447-9.9H6.966A1.509,1.509,0,1,1,7,5.061a1.509,1.509,0,1,1-.019,3.009Zm11.886,9.9H15.977V13.31c0-1.171-.419-1.97-1.467-1.97A1.585,1.585,0,0,0,13.025,12.4a1.982,1.982,0,0,0-.1.706v4.864H10.035s.038-7.892,0-8.71h2.895v1.233a2.874,2.874,0,0,1,2.609-1.438c1.9,0,3.333,1.245,3.333,3.92Zm0,0" fill="#fff"/>
</svg>
