<svg xmlns="http://www.w3.org/2000/svg" width="79.018" height="64.916" viewBox="0 0 79.018 64.916">
  <path id="Path_65" data-name="Path 65" d="M53.918,8.53V30.114A28.263,28.263,0,0,0,2.54,46.391V73.446H30.18V52.9A28.263,28.263,0,0,0,81.558,36.62V8.53ZM42.088,53.4a11.814,11.814,0,1,1,2.371-.247A11.814,11.814,0,0,1,42.088,53.4ZM6.588,69.41V46.391a24.251,24.251,0,0,1,36.72-20.773c-.4-.03-.808-.062-1.22-.062A16.028,16.028,0,0,0,26.075,41.513c0,.494.03.963.074,1.438V69.41ZM77.517,36.62A24.254,24.254,0,0,1,40.794,57.393c.405.03.81.062,1.235.062a16.033,16.033,0,0,0,16-15.957c0-.482-.032-.958-.074-1.428v-27.5H77.517Z" transform="translate(-2.54 -8.53)" fill="#ccf74f"/>
</svg>
