<svg xmlns="http://www.w3.org/2000/svg" width="250.487" height="34.377" viewBox="0 0 250.487 34.377">
  <g id="Privacy_Dynamics_Main_logo_dark" data-name="Privacy Dynamics_Main logo_dark" transform="translate(-2.54 -8.53)">
    <path id="Path_50" data-name="Path 50" d="M412.009,83.67c3.532,0,5.7,2.311,5.7,6.39v1.884c0,3.708-1.825,6.448-5.7,6.448a4.435,4.435,0,0,1-3.88-1.655v6.846H405.84V83.9h2.283v1.426A4.436,4.436,0,0,1,412.009,83.67Zm3.423,8.274V90.06c0-2.71-1.308-4.336-3.652-4.336-2.283,0-3.651,1.57-3.651,4.137v2.082c0,2.453,1.027,4.393,3.651,4.393,2.419,0,3.646-1.967,3.646-4.393Z" transform="translate(-350.545 -65.311)" fill="#172330"/>
    <path id="Path_51" data-name="Path 51" d="M523.922,86.983a2.712,2.712,0,0,0-2.4-1.2c-1.741,0-3.053,1.308-3.053,3.452v8.929H516.19V83.908h2.283V85.3a3.463,3.463,0,0,1,3.309-1.626,4.532,4.532,0,0,1,4.08,1.94Z" transform="translate(-446.461 -65.311)" fill="#172330"/>
    <path id="Path_52" data-name="Path 52" d="M601,44h2.568v2.565H601Zm.143,5.421h2.283V63.679h-2.279Z" transform="translate(-520.177 -30.83)" fill="#172330"/>
    <path id="Path_53" data-name="Path 53" d="M649.737,85.42l-5.706,14.258H641.75L635.93,85.42H638.5l4.336,11.353,4.336-11.353Z" transform="translate(-550.538 -66.832)" fill="#172330"/>
    <path id="Path_54" data-name="Path 54" d="M754.489,89.891h3.4V88.237c0-2.025-.94-2.485-3.166-2.485-1.712,0-2.625.143-3.424,1.455l-1.711-1.2c1-1.653,2.453-2.368,5.163-2.368,3.623,0,5.421,1.169,5.421,4.593v9.9h-2.289V96.739c-.8,1.308-1.769,1.626-3.622,1.626-3.309,0-5.1-1.626-5.1-4.394C749.155,90.891,751.351,89.891,754.489,89.891Zm3.4,1.94h-3.4c-2.254,0-3.053.77-3.053,2.2,0,1.6,1.142,2.224,2.825,2.224,2.11,0,3.622-.4,3.622-3.595Z" transform="translate(-648.957 -65.285)" fill="#172330"/>
    <path id="Path_55" data-name="Path 55" d="M863.992,95.995c-.884,1.653-2.624,2.4-4.939,2.4-3.909,0-6.162-2.512-6.162-6.448V90.06c0-4.055,2.31-6.39,6.162-6.39a5.8,5.8,0,0,1,4.934,2.224l-1.795,1.257a3.756,3.756,0,0,0-3.139-1.427c-2.454,0-3.88,1.655-3.88,4.336v1.884c0,2.453,1.141,4.393,3.88,4.393a3.349,3.349,0,0,0,3.166-1.6Z" transform="translate(-739.118 -65.311)" fill="#172330"/>
    <path id="Path_56" data-name="Path 56" d="M944.451,99.8,938.86,85.394h2.453l4.251,11.064L949.3,85.39h2.424l-5.02,14.73c-1.169,3.423-1.94,4.971-5.933,4.971v-2.224c1.882,0,2.767-.314,3.623-2.853Z" transform="translate(-813.843 -66.806)" fill="#172330"/>
    <path id="Path_57" data-name="Path 57" d="M1105.686,44h2.281V63.681h-2.281V62.427c-.771,1-2,1.483-3.88,1.483-3.88,0-5.706-2.739-5.706-6.447V55.579c0-4.079,2.167-6.39,5.706-6.39a4.435,4.435,0,0,1,3.88,1.655Zm0,13.664V55.579c0-2.682-1.308-4.336-3.652-4.336s-3.651,1.626-3.651,4.336v1.884c0,2.425,1.227,4.393,3.651,4.393,2.539,0,3.652-1.826,3.652-4.194Z" transform="translate(-950.514 -30.83)" fill="#172330"/>
    <path id="Path_58" data-name="Path 58" d="M1204.412,99.8l-5.592-14.406h2.454l4.25,11.064,3.737-11.068h2.425l-5.02,14.73c-1.169,3.423-1.94,4.971-5.935,4.971v-2.224c1.884,0,2.768-.314,3.623-2.853Z" transform="translate(-1039.798 -66.806)" fill="#172330"/>
    <path id="Path_59" data-name="Path 59" d="M1310.27,83.9h2.281v1.4c.714-1.083,1.712-1.626,3.823-1.626,3.052,0,5.192,1.6,5.192,5.592v8.895h-2.283V89.291c0-2.878-1.57-3.51-3.252-3.51a3.324,3.324,0,0,0-3.481,3.481v8.895h-2.281Z" transform="translate(-1136.669 -65.311)" fill="#172330"/>
    <path id="Path_60" data-name="Path 60" d="M1421.632,89.891h3.4V88.237c0-2.025-.941-2.485-3.166-2.485-1.712,0-2.625.143-3.425,1.455l-1.711-1.2c1-1.653,2.453-2.368,5.163-2.368,3.623,0,5.421,1.169,5.421,4.593v9.9h-2.282V96.739c-.8,1.308-1.768,1.626-3.622,1.626-3.309,0-5.1-1.626-5.1-4.394C1416.3,90.891,1418.5,89.891,1421.632,89.891Zm3.4,1.94h-3.4c-2.254,0-3.053.77-3.053,2.2,0,1.6,1.142,2.224,2.825,2.224,2.11,0,3.622-.4,3.622-3.595Z" transform="translate(-1228.839 -65.285)" fill="#172330"/>
    <path id="Path_61" data-name="Path 61" d="M1525.511,83.9h2.287v1.4a3.859,3.859,0,0,1,3.532-1.626,4.411,4.411,0,0,1,4.165,2.254,4.915,4.915,0,0,1,4.28-2.254c3.052,0,4.906,1.884,4.906,5.592v8.895H1542.4V89.291c0-2.6-1.283-3.51-2.967-3.51a3.244,3.244,0,0,0-3.2,3.481v8.895h-2.281V89.291c0-2.6-1.285-3.51-2.967-3.51a3.263,3.263,0,0,0-3.2,3.481v8.895h-2.283Z" transform="translate(-1323.754 -65.311)" fill="#172330"/>
    <path id="Path_62" data-name="Path 62" d="M1699.34,44h2.572v2.565h-2.568Zm.143,5.421h2.282V63.679h-2.282Z" transform="translate(-1474.846 -30.83)" fill="#172330"/>
    <path id="Path_63" data-name="Path 63" d="M1751.877,95.995c-.884,1.653-2.624,2.4-4.934,2.4-3.909,0-6.162-2.511-6.162-6.448V90.06c0-4.055,2.31-6.39,6.162-6.39a5.8,5.8,0,0,1,4.934,2.224l-1.8,1.256a3.756,3.756,0,0,0-3.139-1.427c-2.454,0-3.88,1.655-3.88,4.336v1.884c0,2.453,1.141,4.393,3.88,4.393a3.35,3.35,0,0,0,3.166-1.6Z" transform="translate(-1510.865 -65.311)" fill="#172330"/>
    <path id="Path_64" data-name="Path 64" d="M1843.1,87.21c-.771-1-1.57-1.455-3.532-1.455-1.683,0-2.768.654-2.768,1.911,0,1.626,1.427,2.111,3.309,2.254,2.682.2,5.136.971,5.136,4.251,0,2.485-1.683,4.194-5.363,4.194-2.911,0-4.423-.886-5.506-2.369l1.683-1.2c.769,1.028,1.8,1.456,3.851,1.456,1.911,0,3.052-.742,3.052-2.026,0-1.541-.916-2.082-3.68-2.283-2.4-.17-4.764-1.141-4.764-4.25,0-2.368,1.711-4.055,5.1-4.055,2.31,0,4.078.6,5.192,2.368Z" transform="translate(-1592.222 -65.285)" fill="#172330"/>
    <path id="Path_65" data-name="Path 65" d="M29.748,8.53V19.96A14.967,14.967,0,0,0,2.54,28.58V42.907H17.177V32.026a14.967,14.967,0,0,0,27.208-8.62V8.53ZM23.484,32.29a6.256,6.256,0,1,1,1.256-.131A6.257,6.257,0,0,1,23.484,32.29Zm-18.8,8.48V28.58a12.843,12.843,0,0,1,19.446-11c-.213-.016-.428-.033-.646-.033A8.488,8.488,0,0,0,15,26c0,.262.016.51.039.761V40.77ZM42.245,23.405a12.844,12.844,0,0,1-19.447,11c.215.016.429.033.654.033a8.491,8.491,0,0,0,8.474-8.45c0-.255-.017-.508-.039-.756V10.67H42.245Z" transform="translate(0)" fill="#172330"/>
  </g>
</svg>
