<svg xmlns="http://www.w3.org/2000/svg" xmlns:xlink="http://www.w3.org/1999/xlink" width="235.125" height="79.527" viewBox="0 0 235.125 79.527">
  <defs>
    <clipPath id="clip-path">
      <rect id="Rectangle_410" data-name="Rectangle 410" width="235.125" height="79.527" fill="#a6afbc"/>
    </clipPath>
  </defs>
  <g id="Group_509" data-name="Group 509" transform="translate(0 0)">
    <g id="Group_54" data-name="Group 54" clip-path="url(#clip-path)">
      <path id="Path_74" data-name="Path 74" d="M180.013,71.247c.276-.026.45.091.363.235a.384.384,0,0,1-.529.039c-.229-.144-.174-.248.166-.274M224,21.634a4.1,4.1,0,0,1,1.523.927c.615.509,1.1.823,1.1.692a9.658,9.658,0,0,0-2.77-2.3c-.45-.222-.608-.17-.481.17a.8.8,0,0,0,.623.509M34.538,73.049a.933.933,0,0,0,.868.47c.395,0,.623-.209.529-.47a.912.912,0,0,0-.86-.457c-.395,0-.631.2-.537.457M220.877,21.125a1.844,1.844,0,0,0,.978.718c.56.209.781.523.671.967-.079.379-.016.679.158.679s.308-.209.308-.47.126-.457.292-.457.229.183.142.418a1.211,1.211,0,0,0,.268.967c.245.34.418.379.418.091a.923.923,0,0,0-.355-.692c-.213-.144-.166-.248.11-.274.253-.026.537.274.615.653.1.444.323.588.631.392s.41-.118.284.222-.047.444.237.261c.324-.209.395-.065.268.575-.142.705-.11.732.134.17a3.83,3.83,0,0,0,.316-1.019,28.29,28.29,0,0,0-5.4-3.618c-.134,0-.166.17-.071.418M36.472,73.141c-.079.209.079.392.363.418s1.326.131,2.3.235,1.7.013,1.586-.183c-.308-.5-4.087-.914-4.253-.47M93.44,2.641c.6-.314.529-.379-.473-.418-.647-.026-1.255.17-1.349.418-.2.536.813.536,1.823,0M222.281,20.249c-.189-.509-1.247-.9-1.247-.47,0,.2.316.47.686.588s.623.052.56-.118m-13.224-5.382c.868.379,1.113.34.931-.131-.189-.509-1.547-.914-1.547-.47,0,.183.276.444.615.6m-10.691-3.958a8.868,8.868,0,0,0,2.241.98c1,.314,2,.64,2.241.705s1.42.5,2.651.927a17.518,17.518,0,0,1,2.454,1.006c.126.118.205.026.205-.235,0-.235-.347-.562-.765-.692s-2.533-.888-4.687-1.659c-4.142-1.489-5.066-1.711-4.34-1.032M52.726,74.238c-2.627-.483-11.1-.718-10.944-.3a.688.688,0,0,0,.663.431c.268-.013,2.62.131,5.247.3s5.476.366,6.368.418,1.61-.065,1.61-.274-.466-.379-1.049-.392a13.486,13.486,0,0,1-1.894-.183M96.3,2.484c1.12-.17,3.29-.418,4.829-.562s3.243-.34,3.779-.444a26.571,26.571,0,0,1,3.077-.2c3.472-.039,8.111-.575,8.111-.954,0-.209-.458-.34-1.049-.3-.568.039-2,.1-3.148.157S107.737.5,105.189.76s-6.028.614-7.764.771c-1.87.17-3.148.47-3.148.758,0,.327.718.392,2.028.2M171.2,4.43c.75-.17,11.189,1.79,14.013,2.639.395.118,2.075.614,3.779,1.11,6.912,2.038,7.811,2.325,8.309,2.586.284.144.5.078.5-.157,0-.862-14.155-4.977-21.825-6.335-4.561-.81-5.7-.862-5.436-.2a.607.607,0,0,0,.655.353M124.275.72c7.472.013,10.826.157,19.387.771,2.02.157,5.074.366,6.857.47a132.811,132.811,0,0,1,14.163,1.424c.5.131.971.013,1.073-.261s-.237-.5-.884-.523a11.657,11.657,0,0,1-1.76-.222c-1.042-.248-10.407-1.071-15.528-1.372-2.462-.144-5.168-.353-6.02-.47-3.748-.5-25.178-.758-25.178-.3,0,.3,2.738.47,7.89.483m45.835,2.8c0-.222-.576-.4-1.278-.4s-1.2.183-1.12.4c.213.562,2.4.562,2.4,0m-3.637.052c.166,0,.276-.183.276-.457s-.11-.47-.276-.47-.284.183-.284.47.11.457.284.457M56.253,74.944c.387.379,3.385.5,16.254.588,5.91.052,8.9-.091,8.9-.392s-4.253-.483-12.759-.509c-7.022-.026-12.593.118-12.4.314M216.624,19.805c-.56-.274-.963-.287-1.057-.026-.142.4.481.679,1.1.483.134-.039.395.157.615.47.284.379.395.392.395.026,0-.287-.032-.509-.071-.509a9.922,9.922,0,0,1-.978-.444M210.4,15.1c0,.222.544.562,1.191.745a43.322,43.322,0,0,1,4.2,1.659,31.9,31.9,0,0,0,3.2,1.332c.892-.065-2.967-1.959-7.811-3.854-.418-.157-.781-.1-.781.118m-8.056,46.047c-1.065.274-1.72.666-1.649.967.134.588.221.575,2.517-.17.868-.287,1.594-.705,1.594-.941,0-.5-.032-.5-2.462.144m17.051-40c.56.34.789.666.56.81a.562.562,0,0,1-.686-.274,1.01,1.01,0,0,0-.8-.509c-.276,0-.434-.261-.355-.614.205-.875-2.848-2.273-3.243-1.476-.245.483-.529.5-1.483.026-.639-.327-1.136-.823-1.1-1.11.039-.314-.292-.666-.765-.836s-.844-.47-.844-.679.158-.287.355-.183,1.973.836,3.985,1.646c4,1.62,4.269,1.777,3.779,2.273-.221.222-.016.549.6.927m-4.963-2.717c-.339.039-.4.131-.174.287a.406.406,0,0,0,.537-.052c.087-.144-.087-.261-.363-.235m5.634.8c.087-.157-.071-.418-.347-.588-.395-.235-.426-.17-.158.287.2.314.418.444.5.3m15.063,15.375c.024,4.768-.544,7.185-2.533,10.7-2.691,4.768-8.245,11.064-9.216,10.437-.221-.131-.355-.026-.316.261.071.562-2.209,1.79-2.478,1.345-.095-.157-.126,0-.071.379.095.627-1.357,1.568-1.775,1.15-.126-.131-.489.183-.828.692s-.718.81-.868.653-.371,0-.489.327a1.342,1.342,0,0,1-1.16.64,1.85,1.85,0,0,0-1.326.679,1.333,1.333,0,0,1-1.333.444c-.5-.1-.939.013-.939.248,0,.261-.071.314-.181.144-.095-.157-.331-.091-.5.131a.439.439,0,0,1-.71.052c-.331-.34-.331-.509-.016-1.163.331-.666.292-.705-.292-.327a2.158,2.158,0,0,1-1.515.536.417.417,0,0,0-.418.392c0,.222.363.314.813.2.757-.183,1.412.549,1.034,1.15-.331.549-4.561,1.79-5.7,1.672-.836-.078-1.144.039-1.01.392.126.314.032.4-.252.235-.252-.157-.481-.078-.529.183-.055.3-.339.314-.781.039-.537-.314-.789-.235-1.065.327-.205.418-.3.5-.213.183a.867.867,0,0,0-.126-.823.719.719,0,0,1-.126-.718c.087-.235-.134-.444-.473-.444-.584,0-.592.039-.11.627a1.269,1.269,0,0,1,.308,1.176c-.166.444-.292.444-.6.026-.324-.431-.395-.392-.395.209,0,.927-.442.954-.655.052-.079-.379-.284-.705-.434-.705-.166,0-.221.287-.142.653.095.457-.055.653-.5.666-1.562.052-2.154.222-2.02.588.229.614-.276.509-.663-.144-.253-.418-.339-.418-.339-.026,0,.327-.181.431-.458.261s-.395-.091-.284.209-.2.562-.781.666c-.529.1-.9.026-.829-.183.087-.222.039-.366-.126-.366a1.542,1.542,0,0,1-.655-.261c-.221-.144-.671.157-1.034.679-.671.98-1.452,1.254-1.823.64-.308-.509-1-.575-1-.091,0,.274-.1.366-.253.209s-.434.052-.663.418c-.308.509-.489.536-.765.118s-.316-.418-.166.026c.118.353.039.575-.213.575-.221,0-.481-.261-.576-.575-.134-.47-.2-.47-.331,0-.095.314-.284.575-.434.575s-.205-.17-.11-.418c.2-.536-.576-.418-.884.144-.118.222-.032.235.2.039s.308-.17.189.052a.993.993,0,0,1-1.665,0c-.134-.34-.205-.235-.205.274,0,1.032-.221,1.058-.868.1-.418-.627-.521-.627-.836-.052a.75.75,0,0,1-.915.4c-.363-.144-.473-.052-.347.314.11.3.016.523-.237.523a.426.426,0,0,1-.434-.457c0-.261-.126-.47-.292-.47s-.237.17-.158.4a.27.27,0,0,1-.26.392c-.237,0-.41-.3-.41-.718,0-.523-.118-.444-.434.3a1.388,1.388,0,0,1-1.27,1.019c-.473,0-.773-.183-.686-.418s-.095-.314-.41-.183a.839.839,0,0,0-.552.64c0,.679-2.272.183-2.556-.549-.189-.509-.245-.523-.245-.052,0,.327-.118.483-.252.353-.363-.366-1.184.222-1,.718.221.588-.813.509-1.184-.091-.182-.313-.395-.235-.623.222-.418.836-1.7,1.019-1.7.235,0-.34-.142-.314-.418.065-.5.705-1.894,1.032-1.665.4.087-.248-.1-.418-.434-.418-.363,0-.521.2-.41.509.126.34-.166.47-.892.392a2.726,2.726,0,0,0-1.562.235,1.4,1.4,0,0,1-1.278-.078c-.947-.5-2.012-.248-2.012.47,0,.327-.11.274-.284-.144-.181-.457-.276-.5-.276-.118,0,.353-.395.588-.978.588s-.978-.235-.978-.588-.079-.4-.213-.091a.709.709,0,0,1-.631.444,1.037,1.037,0,0,0-.765.366.422.422,0,0,1-.718-.026c-.379-.457-.671-.431-1.452.144-.339.248-.568.2-.631-.144-.071-.366-.529-.314-1.539.2s-1.476.562-1.547.209c-.126-.6-1.255-.679-1.6-.091-.395.64-1.9.914-2.3.418-.253-.327-.363-.3-.363.065s-.529.47-1.681.34c-.923-.091-1.673,0-1.673.235s-.253.183-.537-.065c-.387-.366-.56-.34-.655.091s-.253.4-.647-.118c-.331-.457-.434-.483-.292-.091.174.457-.15.6-1.412.6-.9,0-2.935.118-4.529.248-2.383.222-2.856.144-2.675-.366s.142-.509-.252.013c-.647.862-7.188,1.385-7.188.562,0-.4-.174-.392-.647.039-.631.575-2.375.718-13.287,1.136-4.482.17-5.934.091-5.934-.313,0-.366-.11-.379-.363-.039-.418.575-6.3.483-6.857-.091-.221-.235-.339-.1-.339.366,0,.588-.095.614-.568.131s-.615-.47-.8.052c-.166.457-.284.483-.434.091s-.324-.379-.663.065c-.363.5-.4.483-.205-.039.166-.47.142-.549-.1-.3a6.135,6.135,0,0,1-2.351.483c-1.113.078-1.854.039-1.665-.091a.526.526,0,0,0,.213-.6c-.079-.209-.8-.078-1.61.274-.923.4-1.5.483-1.562.183-.126-.666-1.531-.6-1.949.091-.268.444-.339.444-.339-.013,0-.327-.118-.457-.276-.3-.56.575-3.772.64-3.985.091q-.213-.588-.213.039c0,.366-.126.47-.331.261a1.585,1.585,0,0,0-1.152-.261,1.418,1.418,0,0,1-1.2-.418c-.252-.327-.521-.353-.742-.065a1.878,1.878,0,0,1-1.468.3c-.623-.078-1.712-.209-2.438-.3s-1.27-.039-1.215.118c.174.444-3.6.4-3.937-.052-.174-.235-.694-.222-1.255.039-1.4.666-1.8.614-1.4-.17.26-.509.26-.732,0-1.006-.2-.2-.26-.131-.15.17.205.536-.442.993-1.783,1.267-.615.118-.931-.078-1.191-.758-.466-1.241-.844-1.163-.647.131.087.6.095.875.016.6-.071-.248-1.034-.431-2.122-.4-1.846.039-2-.039-2.233-1.019-.339-1.476-.608-1.437-.379.039.158,1.058.1,1.15-.647.993a2.646,2.646,0,0,1-1.12-.457c-.166-.17-.371-.052-.466.274-.134.47-.2.47-.316.026-.11-.379-.363-.418-.813-.144-.363.235-.718.314-.8.183a10.315,10.315,0,0,0-2.825-.248,6.73,6.73,0,0,1-2.691-.3c0-.287-.5-.353-4.056-.549-1.649-.091-2.667-.784-2.675-1.816-.008-.575-.126-.509-.537.327-.552,1.123-.9,1.136-5.184.248a16.48,16.48,0,0,0-1.878-.314c-.245-.013-.4-.2-.331-.392.079-.222.016-.379-.158-.379s-.292.2-.292.47-.347.222-.907-.17a5.2,5.2,0,0,0-2.391-.653c-2.02-.026-3.929-.536-4.127-1.084-.095-.248-.252-.327-.395-.183s-.584,0-1.034-.3a5.629,5.629,0,0,0-2.059-.692c-1.791-.222-3.8-1.319-3.693-2.012.063-.457-.016-.483-.292-.1s-.592.327-1.207-.209a4.608,4.608,0,0,0-1.594-.875A6.073,6.073,0,0,1,9.3,68.164C6.812,66.335,6.465,66.1,6.165,66.1c-.2,0-.276-.157-.2-.392.079-.209-.292-.666-.821-1.019a2.014,2.014,0,0,1-.963-1.345c0-.509-.063-.549-.213-.157-.308.784-2.383-2.6-3-4.859C.728,57.4.4,56.251.255,55.819c-.418-1.293-.308-2.691.229-2.743.426-.026.426-.065-.024-.261-.584-.274-.5-1.489.308-4.311.939-3.292,4.363-8.922,6.32-10.4a3.175,3.175,0,0,0,.734-.718c.718-1.411,12.143-10.829,13.737-11.339a5.332,5.332,0,0,0,1.255-.823c1.294-1.11,12.932-7.472,15.473-8.465.252-.091,1.46-.627,2.691-1.176s2.99-1.267,3.914-1.594,2.8-1.019,4.2-1.541C59,8.741,78.622,3.921,88.122,2.863a11.751,11.751,0,0,0,2.564-.47c.126-.131.276-.026.371.248.095.248,0,.5-.189.536-.205.039-.671.118-1.065.17-7.654,1.176-21.3,4.128-28.958,6.27-1.846.523-3.677,1.019-4.064,1.11s-1.562.47-2.659.862c-9.618,3.449-11.907,4.324-14.968,5.761-1.925.914-3.874,1.816-4.332,2.012-.473.209-1.712.81-2.8,1.345s-2.272,1.071-2.659,1.2a1.411,1.411,0,0,0-.836.627,3.338,3.338,0,0,1-1.4.954,13.9,13.9,0,0,0-1.815.954c-.308.209-1.065.653-1.681.967a5.932,5.932,0,0,0-1.452.993c-.2.248-.458.3-.615.144-.174-.17-.347-.1-.45.157a3.757,3.757,0,0,1-1.065,1.123C11.877,33.991,9.794,35.69,9.66,36.317c-.079.34.955-.3,2.3-1.4,4.308-3.566,6.344-5.081,6.778-5.081a.724.724,0,0,0,.584-.418A23.338,23.338,0,0,1,24.526,25.8a1.678,1.678,0,0,0,.836-.4c1.7-1.437,4.3-2.939,4.505-2.6.071.118.324-.013.521-.287.276-.379.371-.314.371.235,0,.418.134.745.3.745s.213-.2.118-.47c-.252-.653.9-1.646,3.219-2.769,1.152-.562,2.422-1.2,2.8-1.424C39.651,17.454,50.6,13.248,55.8,11.68A229.132,229.132,0,0,1,91.759,3.829c3-.4,6.131-.823,6.944-.941,1.31-.183,2,.3,1.113.8-.2.118.047.314.552.431s.907.065.907-.157a.417.417,0,0,0-.418-.392.459.459,0,0,1-.426-.457c0-.261.718-.5,1.61-.536s2.044-.131,2.588-.209,3.614-.287,6.857-.47,5.918-.366,5.965-.431c.15-.209,18.684.131,22.156.4,1.775.144,5.034.392,7.275.562,10.691.771,15.457,1.176,16.23,1.4.387.118,2.32.4,4.34.653,11.26,1.411,16.759,2.7,29.936,7.028,4.616,1.515,8.9,2.978,9.516,3.24s1.3.549,1.539.627c1.4.47,1.957.862,1.957,1.4a1.228,1.228,0,0,0,.773.927c.418.17.6.418.4.549-.316.2-5.373-1.411-6.494-2.064a4.612,4.612,0,0,0-1.191-.418c-.418-.078-1.113-.235-1.539-.314a4.343,4.343,0,0,1-1.255-.509.854.854,0,0,0-.9-.1c-.229.157-.75-.314-1.231-1.11-.442-.732-1.057-1.345-1.341-1.332-.41.013-.395.1.11.431a1.393,1.393,0,0,1,.631.888c0,.6-.466.653-.679.091-.087-.235-.623-.379-1.207-.327a2.824,2.824,0,0,1-1.831-.562,1.587,1.587,0,0,0-1.5-.34c-.45.183-.647.118-.537-.183s0-.5-.253-.5a.4.4,0,0,1-.434-.392c0-.222.5-.235,1.152-.039s1.042.17.907-.052a2.915,2.915,0,0,0-1.4-.692c-1.01-.261-1.207-.17-1.483.666-.245.745-.434.888-.8.588a.876.876,0,0,0-.829-.2c-.2.118-.347-.026-.347-.34,0-.366-.237-.457-.686-.274-.363.144-.75.091-.828-.118s-.5-.366-.923-.327a2.92,2.92,0,0,1-1.617-.47A3.161,3.161,0,0,0,183.4,9.8a1.068,1.068,0,0,1-1.049-.418c-.142-.327-.213-.3-.213.065,0,.418-.166.418-.671-.013a3.25,3.25,0,0,0-1.957-.536c-.7.026-1.286-.131-1.286-.353s-.56-.3-1.262-.183-1.31.052-1.381-.144-.7-.287-1.4-.222-1.27-.078-1.27-.3a.431.431,0,0,0-.418-.418.483.483,0,0,0-.418.509c0,.34-.142.314-.418-.078-.229-.3-.5-.444-.608-.3s-.418.065-.694-.183c-.363-.327-.521-.314-.521.026a.547.547,0,0,1-.576.483c-.308,0-.5-.209-.418-.444s-.458-.379-1.27-.314c-.789.065-1.483-.052-1.554-.261s-.813-.261-1.649-.118c-.955.157-1.531.078-1.531-.222a.452.452,0,0,0-.434-.5c-.245,0-.355.222-.245.509.126.366.024.379-.339.052a2.8,2.8,0,0,0-1.846-.3c-.757.091-1.326-.052-1.326-.327s-.324-.366-.773-.209a4.094,4.094,0,0,1-2.1-.118c-.726-.209-1.326-.261-1.326-.091s-.489.3-1.1.3-1.049-.17-.971-.366-.126-.379-.434-.379a.629.629,0,0,0-.6.588c-.024.418-.063.431-.158.039a.428.428,0,0,0-.623-.3c-.308.144-.576-.078-.686-.575-.158-.718,0-.784,1.373-.588.868.131,1.61.065,1.689-.157s-.765-.392-1.862-.392c-1.618,0-1.973.118-1.846.653a.789.789,0,0,1-1.357.758c-.284-.392-.544-.392-.963-.026-.308.274-.576.314-.576.078,0-.261-1.554-.431-3.59-.418a13,13,0,0,1-3.937-.327c-.181-.2-.513-.1-.742.209-.252.34-.4.379-.4.091,0-.248-.292-.47-.631-.47s-1.412-.078-2.391-.183-1.815-.039-1.886.144c-.095.248-3.267.209-4.19-.065a6.133,6.133,0,0,0-1.523.183,2.56,2.56,0,0,1-1.5-.013c-.363-.366-2.43-.47-2.43-.1,0,.5-4.616.274-4.829-.235-.134-.327-.205-.3-.205.078,0,.314-.134.575-.3.575s-.205-.235-.11-.509c.126-.353.016-.366-.347-.065-.592.5-2.746.47-3.054-.026-.1-.17-.379-.078-.568.183s-.379.327-.379.118-.134-.078-.284.3c-.181.457-.276.5-.276.118,0-.314-.2-.588-.418-.588s-.426.274-.426.588q0,.568-.26-.118c-.347-.9-.071-1.28,1.1-1.515.537-.1.024-.2-1.12-.2s-1.76.078-1.341.183c.868.222,1.065,1.058.252,1.058a.833.833,0,0,0-.686.327.983.983,0,0,1-.7.379c-.363.026-.481-.2-.395-.745a1.514,1.514,0,0,0-.181-1.1c-.292-.3-.41.261-.324,1.463.032.392-.5.523-1.783.444-1.01-.065-1.838.078-1.838.3s-.189.157-.418-.144-.418-.353-.418-.131c0,.523-.836.483-1.373-.065-.276-.287-.323-.235-.166.2.166.457.071.549-.379.353-.331-.144-.6-.065-.6.157s-.292.418-.631.418c-.529,0-.56-.078-.213-.509.308-.366.2-.4-.418-.118a6.075,6.075,0,0,1-2.359.327c-1.01-.039-1.389.078-1.12.353.316.327.26.418-.237.418-.371,0-.576-.209-.473-.47.245-.666-.174-.6-1.349.222-1.255.875-1.846.941-1.373.157.537-.888.395-1.777-.276-1.75-.5.026-.544.1-.166.353.789.549-.032,1.881-1.042,1.685a1.33,1.33,0,0,0-1.231.4c-.339.457-.387.418-.237-.235.126-.549.063-.705-.221-.536a.565.565,0,0,0-.268.627c.079.209-.821.523-2.028.692-1.184.183-3.472.588-5.034.888-1.988.379-2.872.4-2.872.065,0-.314-.071-.3-.2.026-.26.64-5.792,1.8-6.265,1.319-.2-.209-.26-.157-.166.118.205.536-2.6,1.215-3.274.784-.252-.157-.45-.091-.45.144,0,.457-4.34,1.633-6.32,1.711-.647.026-1.128.183-1.065.353s-.544.444-1.357.614-1.72.418-2.028.509a12.665,12.665,0,0,1-1.7.353,3.515,3.515,0,0,0-1.4.418c-.5.523-3.843,1.646-4.2,1.424a1.184,1.184,0,0,1-.024-1.685c.205-.144.166-.248-.11-.274-.3-.026-.513.444-.631,1.372-.1.784-.292,1.293-.434,1.15s-.615-.013-1.034.248c-1.46.941-6.383,2.769-6.778,2.521-.189-.131-.284-.026-.189.222a.377.377,0,0,1-.339.523,7.035,7.035,0,0,0-2.88,1.032c-1.318.888-5.594,2.926-5.594,2.665,0-.183-.252-.327-.56-.327s-.56.17-.56.366a.394.394,0,0,1-.434.379c-.252,0-.363.2-.268.457.166.47-.11.575-1.681.692-.529.026-.813.261-.765.627.039.327-.055.457-.213.3-.363-.366-1.72.235-1.547.705.063.17-.2.209-.592.091a.683.683,0,0,0-.923.34c-.15.418-.268.444-.41.091-.11-.274.308-.849,1.01-1.359,1.791-1.293,2.667-2.025,2.044-1.7-.308.17-1.16.549-1.886.836s-1.333.692-1.333.888-.205.353-.489.366a2.521,2.521,0,0,0-1.191.679c-.821.784-.615.862.45.2.56-.366.813-.327.986.118.355.927.3,1.293-.205,1.293-.221,0-.339-.209-.252-.457.1-.274-.008-.353-.26-.183a.584.584,0,0,0-.292.666.81.81,0,0,1-.181.718c-.2.2-.252.131-.134-.183.331-.9-.355-.6-.978.418s-3.488,3.057-3.188,2.273c.1-.287.055-.47-.11-.47s-.379.3-.521.718a1.313,1.313,0,0,1-.623.836c-.923.261-1.681.836-1.681,1.28,0,.235-.158.3-.324.131-.181-.183-.481.052-.686.509s-.552.718-.8.562c-.276-.183-.434-.026-.434.431,0,.509-.166.653-.56.5-.363-.157-.56-.013-.56.4a.63.63,0,0,1-.671.653c-.363,0-.718.17-.765.366a6.724,6.724,0,0,1-2.2,2.417c-.189,0-.686.549-1.128,1.254a4.054,4.054,0,0,1-1.215,1.345,4.027,4.027,0,0,0-1.247,1.5c-.466.784-.9,1.28-.994,1.136s-.174.091-.174.509-.126.653-.276.509c-.158-.17-.276-.078-.276.209a.448.448,0,0,1-.371.483c-.363,0-.592.6-1.31,3.475-.679,2.73-.813,4-.537,5.186.347,1.528,1.594,4.023,2.075,4.141a4.17,4.17,0,0,1,1.815,2.116c0,.209.158.261.324.091.2-.2.245-.118.126.209-.1.274-.055.536.095.536.174,0,.3.34.3.81,0,.64.047.679.245.157.3-.784,1.065-.575,4.008,1.11,1.2.692,2.115,1.437,2.028,1.672s-.032.418.142.418.292-.183.292-.418c0-.327,2.265.392,3.606,1.15.363.209.371.3.016.679-.221.248-.284.444-.126.444a1.194,1.194,0,0,0,.647-.4c.205-.222,1.057-.131,1.957.209a82.128,82.128,0,0,0,11.891,2.782c2.683.353,3.551,1.071,1.4,1.15l-1.341.052,1.539.4c.86.209,2.407.5,3.5.64a21.5,21.5,0,0,1,2.525.444l.694.235c.079.026,2.1.144,4.482.261,7.441.366,10.628.771,10.628,1.359,0,.3.095.248.237-.118.189-.483.884-.575,3.148-.366,2.943.261,34.5.314,39.428.052,1.46-.065,6.628-.261,11.473-.431s9.634-.392,10.628-.509,5.1-.431,9.1-.692c4.016-.274,11.165-.888,15.946-1.385s9.871-1.019,11.331-1.163c2.856-.287,4.9-.536,7.141-.875.773-.118,2.265-.327,3.353-.47s2.454-.366,3.077-.5c1.633-.34,2.856-.562,5.042-.888,1.089-.17,2.454-.4,3.077-.536.608-.131,1.846-.314,2.714-.392a5.754,5.754,0,0,0,1.815-.392,2.789,2.789,0,0,1,1.412-.17c.647.039,1.191-.052,1.191-.209s.45-.3.978-.327.978.157.978.4a.512.512,0,0,1-.56.431.511.511,0,0,0-.56.444c0,.261.339.274.844.026s.836-.261.836,0c0,.5.6.457.828-.052a4.011,4.011,0,0,1,1.831-.64c2.154-.418,2.706-.6,2.9-.927.229-.392-3.574.209-4.529.705-.418.222-.75.235-.75.026,0-.549.836-1.071,1.815-1.15a1.976,1.976,0,0,0,1.12-.353,2.06,2.06,0,0,1,1.3-.235c.56.039.978-.052.923-.209s.726-.47,1.7-.718c1.01-.235,1.807-.261,1.807-.039s.166.222.363.026c.56-.575,1.27-.64,1.452-.144a.35.35,0,0,1-.331.5,7.172,7.172,0,0,0-3.164.836c-.56.379-.379.457.907.379.9-.052,1.61-.248,1.61-.431s.379-.353.852-.353c.734,0,.828-.144.686-.927-.126-.692-.039-.941.339-1.006a23.21,23.21,0,0,0,5.121-1.463c1.791-.627,3.661-1.254,4.166-1.4a2.449,2.449,0,0,0,1.113-.575c.174-.313-1.081-.065-3.267.666-.868.287-1.168.248-1.089-.118.055-.274.615-.666,1.2-.849s1.42-.457,1.791-.575c2.8-.9,12.782-6.166,13.571-7.158.158-.2,1.231-1.163,2.383-2.142a33.679,33.679,0,0,0,7.377-9.144c2.17-4.219,2.6-7.2,1.578-10.751a16.309,16.309,0,0,1-.552-2.43c-.008-.327-.126-.575-.276-.575s-.347-.418-.45-.98c-.363-1.881-3.424-6.3-5.578-8.034a12.723,12.723,0,0,0-2.28-1.62c-.11.039-.26-.144-.371-.418a1.214,1.214,0,0,0-.726-.653,4.064,4.064,0,0,1-1.16-.718,2.174,2.174,0,0,0-1.176-.549,1.229,1.229,0,0,1-.907-.6.889.889,0,0,0-.994-.418c-.529.144-.608.026-.45-.679.174-.745.134-.771-.276-.235-.253.34-.473.418-.473.17s-.284-.457-.615-.457c-1.1.013-3.156-.666-3.251-1.071-.047-.209-.26-.261-.489-.118s-.4.052-.4-.209-.308-.4-.7-.34c-.757.131-1.925-.967-1.689-1.607a1.036,1.036,0,0,0-.355-.914c-.86-.836,2.32-.078,6.02,1.437a30.062,30.062,0,0,1,7.188,3.906c.9.653,1.412.457.726-.274a14.117,14.117,0,0,0-2.3-1.463c-1.042-.562-1.894-1.2-1.894-1.411,0-.248-.095-.3-.237-.17-.126.131-1.049-.17-2.028-.666a38.259,38.259,0,0,0-4.032-1.659c-3.874-1.293-3.661-1.894.284-.784,1.7.47,5.792,2.43,6.186,2.952.221.3.387.4.387.248,0-.287,2.572,1.176,3.779,2.142.466.379,1.562,1.267,2.462,1.986,2.067,1.659,4.174,4.311,3.937,4.951-.1.287-.063.379.095.222.592-.614,2.809,4.363,3.985,8.961a23.444,23.444,0,0,1,.679,6.479M213.2,9.538c0-.6-.8-.8-.939-.222a.406.406,0,0,0,.4.549c.284,0,.537-.144.537-.327m-5.042,7c2.044.614,2.58.314.647-.366-.726-.261-1.854-.6-2.462-.745-1.775-.444-.252.483,1.815,1.11m-4.2-1.829a.446.446,0,0,0,.426.444c.221,0,.418-.091.418-.2s-.2-.3-.418-.431-.426-.052-.426.183m-4.616-1.4a2.13,2.13,0,0,0,1.12.379c.45-.026.418-.1-.142-.392-.947-.509-1.689-.5-.978.013m-3.274-1.084a.393.393,0,0,0,.537-.039c.087-.157-.087-.261-.363-.235-.339.026-.4.131-.174.274m-7.551-2.312c.2.118.442.1.529-.052s-.079-.248-.363-.222c-.331.026-.395.131-.166.274m-5.113-1.254c.166.444.694.235.694-.274,0-.1-.181-.183-.434-.183s-.363.2-.26.457m-1.886-.6a.38.38,0,0,0,.537-.052c.087-.144-.087-.248-.363-.222-.339.026-.4.131-.174.274M179.413,7.6a.938.938,0,0,0,.836,0c.2-.144-.016-.235-.489-.235s-.631.091-.347.235m-2.8-.5a1.4,1.4,0,0,0,.978,0c.268-.1.039-.209-.489-.209s-.757.1-.489.209m-2.241-.431a.954.954,0,0,0,.844,0c.2-.144-.016-.235-.489-.235s-.631.091-.355.235m-3.077-.47a.954.954,0,0,0,.844,0c.2-.131-.016-.235-.489-.235s-.631.1-.355.235M168,5.841c.142.392,1.27.183,1.27-.235,0-.1-.324-.183-.71-.183s-.647.183-.56.418m-4.016-.718a7.682,7.682,0,0,0,1.933.418c1.089.144,1.539.1,1.113-.118-.694-.379-3.274-.627-3.046-.3m-3.6-.3a3.815,3.815,0,0,0,1.539,0c.418-.1.071-.2-.765-.2s-1.191.091-.773.2m-3.061-.209c.56.078,1.034-.013,1.034-.209s-.639-.353-1.452-.314c-1.523.052-1.373.235.418.523m-10.494-.954a.7.7,0,0,0,.8.274c.379-.131.308-.248-.276-.457-.5-.183-.694-.1-.521.183m-2.951-.235a3.145,3.145,0,0,0,1.4,0c.355-.1.016-.183-.765-.183s-1.065.078-.631.183m-4.269-.392a.4.4,0,0,0,.41.392.268.268,0,0,0,.26-.392c-.079-.235-.245-.392-.4-.392s-.268.157-.268.392m-2.864-.065a5.292,5.292,0,0,0,1.815,0c.5-.1.1-.183-.907-.183s-1.412.078-.907.183m-1.965,0a.678.678,0,0,0,.7,0c.2-.131.039-.235-.347-.235s-.544.1-.355.235m-5.863-.3c.371.248.576.64.481.9s-.032.457.142.457c.466,0,.331-1.254-.174-1.568A1.589,1.589,0,0,0,128.6,2.2c-.182.013-.047.222.316.47m-13.374.457c0,.287.126.366.284.209a.834.834,0,0,0,.276-.483c0-.131-.11-.209-.276-.209s-.284.209-.284.483m-11.749.392c0,.6.726.993,1.01.549a1.946,1.946,0,0,1,.947-.614c.4-.118.126-.235-.631-.274-.726-.039-1.326.118-1.326.34m-5.05.862c.308-.039.481-.235.4-.444-.2-.509-.592-.457-.8.091-.087.235.087.392.395.353m-2.714-.026a3.144,3.144,0,0,0,1.4,0c.355-.1.016-.183-.765-.183s-1.065.078-.631.183M90.008,5.4c.5.013.915-.065.915-.157,0-.431-.757-.575-1.262-.235-.442.3-.379.379.347.392M87.4,6.86c-.339.026-.4.131-.166.274a.383.383,0,0,0,.529-.039c.087-.157-.087-.261-.363-.235m-.742-1.11a.678.678,0,0,0,.7,0c.189-.131.039-.235-.355-.235s-.544.1-.347.235m-2.5.457a.384.384,0,0,0,.529-.039c.087-.157-.087-.261-.363-.235-.339.026-.4.131-.166.274m-2.8.47a.394.394,0,0,0,.529-.052c.095-.144-.079-.261-.363-.235-.331.039-.395.131-.166.287M76.594,7.6a.394.394,0,0,0,.529-.052c.095-.144-.079-.261-.363-.235-.331.039-.395.131-.166.287m-4.2.914a.393.393,0,0,0,.537-.039c.087-.144-.087-.261-.363-.235-.339.026-.4.131-.174.274m-1.957.47c.2.118.442.1.529-.052s-.079-.248-.363-.222c-.331.026-.395.131-.166.274m-12.309,3.24a.383.383,0,0,0,.529-.039c.087-.157-.087-.261-.363-.235-.339.026-.4.131-.166.274M55.44,13.274a.711.711,0,0,0,.639-.444c.205-.549.205-.549-.552,0-.45.34-.466.431-.087.444m-5.934,1.594c0,.1.2.314.426.444s.418.052.418-.183a.445.445,0,0,0-.418-.444c-.229,0-.426.091-.426.183m-1.113.47c0,.091.189.3.418.431s.418.052.418-.183a.433.433,0,0,0-.418-.431c-.229,0-.418.078-.418.183m-1.12.875c.308-.131.56-.314.56-.418,0-.379-.813-.183-.971.235-.079.222.1.314.41.183m-2.588.653a.664.664,0,0,0,.694,0c.2-.131.047-.235-.347-.235s-.544.1-.347.235m-4.466,1.855a.394.394,0,0,0,.529-.052c.095-.144-.079-.261-.363-.235-.331.039-.395.131-.166.287m-1.12.457a.38.38,0,0,0,.537-.052c.087-.144-.087-.248-.371-.222-.331.026-.395.131-.166.274M32.44,22.588c0,.274.118.366.284.209A.86.86,0,0,0,33,22.3c0-.118-.11-.2-.276-.2s-.284.2-.284.483M22.016,28.923c.339-.026.631-.235.631-.431,0-.47-.339-.444-.836.078-.339.34-.3.418.205.353M19.01,30.948c0,.248.11.418.284.418s.276-.157.276-.392a1.657,1.657,0,0,1,.631-.914c.331-.261.5-.509.347-.509-.473,0-1.539.967-1.539,1.4m-2.1,1.959c.647.431.757.392.56-.157-.095-.248.15-.666.544-.927s.718-.562.718-.692c0-.5-.734-.183-1.483.64-.647.692-.71.888-.339,1.136M11.877,36.7c.308-.183.781-.431,1.049-.562a.813.813,0,0,0,.489-.653c0-.627-.363-.457-1.262.575-.473.536-.592.823-.276.64m-1.412,1.332c.252-.157.434-.353.434-.457,0-.353-.544-.144-.694.274-.1.274.008.353.26.183M8.492,38.3a1.524,1.524,0,0,0,.726-.914c0-.758-.647-.509-1.231.457-.623,1.032-.529,1.11.5.457M6.709,41.085c-.158,0-.331.2-.434.47s.016.457.268.457a.433.433,0,0,0,.434-.457c0-.274-.1-.47-.268-.47m-.852-.941c0,.235.2.314.418.183s.426-.34.426-.444-.2-.183-.426-.183a.445.445,0,0,0-.418.444M3.624,46.205c0,.287.118.366.276.209a.855.855,0,0,0,.284-.483c0-.131-.118-.209-.284-.209s-.276.209-.276.483M1.1,54.526c0-.274-.126-.47-.292-.47s-.221.2-.126.47.221.457.292.457.126-.183.126-.457m10.36,12.789c0-.836-.166-.954-.41-.287a.656.656,0,0,0,.126.692c.15.157.284-.039.284-.4m.947,0c-.095-.418-.292-.745-.45-.745-.363,0-.134,1.058.284,1.293.205.118.268-.091.166-.549m2.265.64c-.095-.274-.276-.457-.442-.457s-.213.183-.118.457.284.47.45.47.213-.183.11-.47m4.355,1.763c-.45-.1-.773-.039-.7.144.189.509,1.231.81,1.389.418.071-.209-.237-.457-.686-.562m6.7,2.4c0-.17-.529-.47-1.176-.666-1.988-.588-3.14-.771-2.983-.483a2.584,2.584,0,0,0,1.176.431,3.472,3.472,0,0,1,1.333.5c.418.444,1.649.6,1.649.222m1.823.091c-.481,0-.631.1-.355.235a.954.954,0,0,0,.844,0c.2-.131-.016-.235-.489-.235m2.935.379a1.773,1.773,0,0,0-.56-.47,1.773,1.773,0,0,0-.56.47c-.308.34-.166.457.56.457s.868-.118.56-.457m42.253,4.833c0-.118-.11-.209-.284-.209-.158,0-.276.209-.276.5s.118.366.276.209a.836.836,0,0,0,.284-.5m3.077.261c0-.261-.126-.47-.292-.47s-.229.209-.126.47.213.457.292.457.126-.183.126-.457M123.1,75.923c-.537,0-.757.091-.489.209a1.4,1.4,0,0,0,.978,0c.268-.118.039-.209-.489-.209m7-.457c-.537,0-.757.091-.5.209a1.4,1.4,0,0,0,.978,0c.268-.118.047-.209-.481-.209m4.474-.379c0-.1-.181-.183-.434-.183s-.363.2-.26.47c.166.444.694.222.694-.287m1.539-.065c-.615.013-.836.1-.489.209a2.024,2.024,0,0,0,1.12-.026c.268-.118-.016-.2-.631-.183m4.758-.483c-.481,0-.631.091-.355.235a.954.954,0,0,0,.844,0c.2-.144-.016-.235-.489-.235m5.034-.418c-.781,0-1.057.078-.631.183a3.181,3.181,0,0,0,1.4,0c.347-.1.008-.183-.773-.183m5.176-.418c0-.1-.521-.183-1.136-.183s-1.065.17-.994.366c.134.366,2.13.183,2.13-.183m3.5-.509c-.781,0-1.057.078-.623.183a3.146,3.146,0,0,0,1.4,0c.355-.1.016-.183-.773-.183m3.85-.562c-.671-.026-.907.157-.907.705s.087.614.347.274a2.369,2.369,0,0,1,.907-.692c.363-.157.237-.248-.347-.287m2.028-.039c-.371.274-.142.327.7.131a4.475,4.475,0,0,0,1.373-.431c.237-.353-1.547-.078-2.075.3m3.787.692c-.205.418-.229.692-.047.692.158,0,.379-.235.481-.509.292-.784-.055-.941-.434-.183m.868-1.62c-.639,0-1.16.209-1.16.457,0,.431,1.9.235,2.186-.222.079-.131-.379-.235-1.026-.235m1.917,1.385c0-.274-.11-.457-.276-.457s-.276.183-.276.457.11.47.276.47.276-.183.276-.47m1.539-1.737c-.615.013-.836.1-.489.209a2.028,2.028,0,0,0,1.12-.013c.268-.118-.016-.209-.631-.2m2.943-.483c-.537,0-.758.091-.489.209a1.4,1.4,0,0,0,.978,0c.268-.118.039-.209-.489-.209m2.1-.457c-.481,0-.631.091-.347.222a.938.938,0,0,0,.836,0c.2-.131-.016-.222-.489-.222m4.056,0c0-.261-.45-.549-.978-.653s-.978-.013-.978.183.252.379.529.379a2.306,2.306,0,0,1,.978.274c.252.157.45.065.45-.183m2.517-.927c0-.5-.56-.509-1.255-.052-.45.3-.379.379.347.392.5.013.907-.144.907-.34m2.241-.091c0-.248-.292-.47-.631-.47-.5,0-.544.091-.213.444.537.575.844.575.844.026m2.233-.562c0-.17-.442-.3-.978-.274s-.978.209-.978.418.45.327.978.274.978-.235.978-.418m.844-.366c0-.287-.047-.47-.126-.47s-.2.183-.292.47c-.095.261-.047.457.126.457s.292-.2.292-.457m3.5.457c-.1-.274-.221-.457-.292-.457s-.126.183-.126.457.126.47.292.47.221-.209.126-.47m4.9-2.573c0-.118-.11-.209-.284-.209-.158,0-.276.209-.276.5s.118.366.276.209a.836.836,0,0,0,.284-.5m7.662-2.012c-.331.026-.395.131-.166.274a.381.381,0,0,0,.529-.039c.095-.144-.079-.261-.363-.235m1.712-.418c-.481,0-.631.1-.355.235a.954.954,0,0,0,.844,0c.2-.131-.016-.235-.489-.235m1.365-.509c-.331.026-.395.131-.166.274A.393.393,0,0,0,205,63.6c.087-.144-.087-.261-.371-.235m5.492-3.736c-.252.274-.292.444-.087.444a.613.613,0,0,0,.505-.457c.213-.562.11-.562-.418.013m1.854.914c-.331,0-.458-.248-.363-.692.095-.418-.016-.705-.26-.705-.481,0-.489.47-.024,1.489.252.549.473.653.765.353.324-.366.308-.444-.118-.444m1.783-.274c0-.366-.544-.144-.694.274-.1.261.008.34.26.183s.434-.353.434-.457m.552-2.3c0-.131-.11-.209-.276-.209s-.276.209-.276.483.118.366.276.209a.834.834,0,0,0,.276-.483m1.4,2.573c0-.274-.055-.47-.126-.47s-.2.2-.292.47-.047.457.126.457.292-.2.292-.457m2.122-4.938c-1.089.118-1.562.366-1.562.81,0,.64,1.4.47,1.815-.222.339-.575.308-.64-.253-.588m1.515,1.881c0-.1-.181-.183-.434-.183s-.363.183-.26.457c.166.444.694.235.694-.274m0-37.229a.445.445,0,0,0,.418.444c.221,0,.418-.091.418-.183s-.2-.3-.418-.444-.418-.052-.418.183M191.612,64a2.056,2.056,0,0,1-1.01.327,1.257,1.257,0,0,0-1.034.758c-.118.483-.032.575.331.327a7.357,7.357,0,0,1,2.028-.523c1.854-.222,2.58-1.1.931-1.1a2.389,2.389,0,0,0-1.247.209m-7.125,1.724a3.523,3.523,0,0,0-1.034.2,9.708,9.708,0,0,1-1.7.392c-.915.17-3.417.614-5.6,1.006a40.734,40.734,0,0,1-4.853.64c-.694-.039-.9.144-.876.8.016.457.071.627.134.366s.592-.444,1.176-.418a42.325,42.325,0,0,0,6.912-.954c.923-.17,2.059-.392,2.517-.509s1.625-.34,2.6-.523c1.823-.314,2.454-1.189.726-.993m1.286.078c0,.4.308.523.986.392.529-.091.978-.34.978-.523s-.45-.379-.978-.4c-.623-.026-.986.17-.986.536m12.088-3.213c-.813.235-1.452.549-1.452.718s.655.144,1.468-.052a18.86,18.86,0,0,1,1.957-.366.475.475,0,0,0,.489-.444c0-.483-.331-.457-2.462.144m-30.078,6.166a3.384,3.384,0,0,1-1.72.2c-.892-.039-1.554.144-1.554.418,0,.327.8.392,2.312.183,1.255-.157,2.462-.3,2.659-.313a.4.4,0,0,0,.347-.392c0-.47-1.775-.549-2.044-.091m27.7-5.826a2.837,2.837,0,0,1-.7.274c-.781.248-.828,1.058-.055,1.058a.532.532,0,0,0,.56-.5c0-.248.158-.327.323-.157.2.2.245.118.126-.209-.1-.274-.221-.5-.253-.47M162.749,69.4a5.258,5.258,0,0,0-1.389.2,22.65,22.65,0,0,1-3.006.418c-1.625.17-3.5.392-4.2.509s-2.572.327-4.2.457-5.815.562-9.374.941c-8.727.914-25.21,1.959-36.09,2.286-4.924.157-11.851.366-15.394.457s-6.652.2-6.92.209c-.284.013-.5.183-.5.379s2.1.327,4.679.3c11.607-.118,28.737-.653,34.5-1.071,3.472-.248,7.993-.588,10.076-.745,2.067-.144,4.348-.366,5.034-.483s2.769-.314,4.616-.457,3.929-.34,4.616-.444,2.462-.3,3.922-.431c2.6-.248,5.863-.627,8.4-.967.694-.1,2.32-.3,3.637-.47,2.541-.3,3.89-1.228,1.594-1.084m25.825-4.69a.472.472,0,1,0,.56.457.521.521,0,0,0-.56-.457" transform="translate(-0.002 0.001)" fill="#a6afbc"/>
    </g>
  </g>
</svg>
